# xmcd
#
# Track frame offsets:
#	150
#	16548
#	27144
#	46100
#	56103
#	72907
#	93414
#	105757
#	121610
#	140536
#
# Disc length: 2121 seconds
#
# Revision: 0
# Processed by: cddbd v1.5.2PL0 Copyright (c) Steve Scherf et al.
# Submitted via: EasyCDDAExtractor 10.0.2.1
#
DISCID=6f08470a
DTITLE=The New Hinsons - Masterpieces
DYEAR=2005
DGENRE=Gospel
TTITLE0=When He Was On The Cross
TTITLE1=Meet Me At The Table
TTITLE2=I'll Talk To My Father
TTITLE3=Victory Side
TTITLE4=When Mama Prayed
TTITLE5=The Search Is Over
TTITLE6=Who But God
TTITLE7=Once Upon A Hill
TTITLE8=The Lost Sheep
TTITLE9=Chains Of Love
EXTD=
EXTT0=
EXTT1=
EXTT2=
EXTT3=
EXTT4=
EXTT5=
EXTT6=
EXTT7=
EXTT8=
EXTT9=
PLAYORDER=
